<svg id="visual" viewBox="0 0 1920 1080" width="1920" height="1080" xmlns="http://www.w3.org/2000/svg" xmlns:xlink="http://www.w3.org/1999/xlink" version="1.1"><rect x="0" y="0" width="1920" height="1080" fill="#ffffff"></rect><defs><linearGradient id="grad1_0" x1="43.8%" y1="0%" x2="100%" y2="100%"><stop offset="14.444444444444446%" stop-color="#ffffff" stop-opacity="1"></stop><stop offset="85.55555555555554%" stop-color="#ffffff" stop-opacity="1"></stop></linearGradient></defs><defs><linearGradient id="grad2_0" x1="0%" y1="0%" x2="56.3%" y2="100%"><stop offset="14.444444444444446%" stop-color="#ffffff" stop-opacity="1"></stop><stop offset="85.55555555555554%" stop-color="#ffffff" stop-opacity="1"></stop></linearGradient></defs><g transform="translate(1920, 0)"><path d="M0 540C-48.2 507.4 -96.4 474.7 -149.3 459.4C-202.1 444 -259.5 445.9 -309.2 425.5C-358.8 405.2 -400.6 362.5 -435.3 316.2C-469.9 270 -497.3 220.2 -513.6 166.9C-529.8 113.6 -534.9 56.8 -540 0L0 0Z" fill="#16A34A"></path></g><g transform="translate(0, 1080)"><path d="M0 -540C57.6 -532.6 115.2 -525.2 161.3 -496.5C207.4 -467.7 242 -417.6 274.5 -377.8C307 -338 337.4 -308.6 381.9 -277.4C426.3 -246.3 484.9 -213.4 513.6 -166.9C542.3 -120.3 541.1 -60.2 540 0L0 0Z" fill="#16A34A"></path></g></svg>